<mxfile host="app.diagrams.net" modified="2023-10-10T15:32:25.159Z" agent="Mozilla/5.0 (Macintosh; Intel Mac OS X 10_15_7) AppleWebKit/537.36 (KHTML, like Gecko) Chrome/117.0.0.0 Safari/537.36" etag="clNKCEQgceLbUsqT0e4W" version="22.0.4" type="github">
  <diagram id="C5RBs43oDa-KdzZeNtuy" name="Page-1">
    <mxGraphModel dx="3585" dy="1975" grid="1" gridSize="10" guides="1" tooltips="1" connect="1" arrows="1" fold="1" page="1" pageScale="1" pageWidth="2336" pageHeight="1654" math="0" shadow="0">
      <root>
        <mxCell id="WIyWlLk6GJQsqaUBKTNV-0" />
        <mxCell id="WIyWlLk6GJQsqaUBKTNV-1" parent="WIyWlLk6GJQsqaUBKTNV-0" />
        <mxCell id="meaRv1d-LlNJj-3QuRXh-28" value="To Do" style="swimlane;fontStyle=0;childLayout=stackLayout;horizontal=1;startSize=30;horizontalStack=0;resizeParent=1;resizeParentMax=0;resizeLast=0;collapsible=1;marginBottom=0;whiteSpace=wrap;html=1;" parent="WIyWlLk6GJQsqaUBKTNV-1" vertex="1">
          <mxGeometry x="160" y="590" width="140" height="120" as="geometry">
            <mxRectangle x="30" y="240" width="130" height="30" as="alternateBounds" />
          </mxGeometry>
        </mxCell>
        <mxCell id="meaRv1d-LlNJj-3QuRXh-29" value="Ticket has been through the Ticket Workflow&lt;br&gt;&lt;br&gt;Meets the Definition Of Ready" style="text;strokeColor=none;fillColor=none;align=left;verticalAlign=middle;spacingLeft=4;spacingRight=4;overflow=hidden;points=[[0,0.5],[1,0.5]];portConstraint=eastwest;rotatable=0;whiteSpace=wrap;html=1;" parent="meaRv1d-LlNJj-3QuRXh-28" vertex="1">
          <mxGeometry y="30" width="140" height="90" as="geometry" />
        </mxCell>
        <mxCell id="meaRv1d-LlNJj-3QuRXh-33" value="Game Plan" style="swimlane;fontStyle=0;childLayout=stackLayout;horizontal=1;startSize=30;horizontalStack=0;resizeParent=1;resizeParentMax=0;resizeLast=0;collapsible=1;marginBottom=0;whiteSpace=wrap;html=1;" parent="WIyWlLk6GJQsqaUBKTNV-1" vertex="1">
          <mxGeometry x="160" y="920" width="140" height="110" as="geometry">
            <mxRectangle x="30" y="570" width="130" height="30" as="alternateBounds" />
          </mxGeometry>
        </mxCell>
        <mxCell id="meaRv1d-LlNJj-3QuRXh-34" value="Ticket is moved into Game Plan when work is not considered a simple, atomic task." style="text;strokeColor=none;fillColor=none;align=left;verticalAlign=middle;spacingLeft=4;spacingRight=4;overflow=hidden;points=[[0,0.5],[1,0.5]];portConstraint=eastwest;rotatable=0;whiteSpace=wrap;html=1;" parent="meaRv1d-LlNJj-3QuRXh-33" vertex="1">
          <mxGeometry y="30" width="140" height="80" as="geometry" />
        </mxCell>
        <mxCell id="meaRv1d-LlNJj-3QuRXh-37" value="In Progress" style="swimlane;fontStyle=0;childLayout=stackLayout;horizontal=1;startSize=30;horizontalStack=0;resizeParent=1;resizeParentMax=0;resizeLast=0;collapsible=1;marginBottom=0;whiteSpace=wrap;html=1;" parent="WIyWlLk6GJQsqaUBKTNV-1" vertex="1">
          <mxGeometry x="600" y="590" width="140" height="450" as="geometry">
            <mxRectangle x="470" y="240" width="130" height="30" as="alternateBounds" />
          </mxGeometry>
        </mxCell>
        <mxCell id="meaRv1d-LlNJj-3QuRXh-38" value="Ticket has been through Game Plan (if needed)&lt;br&gt;&lt;br&gt;Developers and Testers to pair to ensure A/C is met and test coverage is appropriate" style="text;strokeColor=none;fillColor=none;align=left;verticalAlign=middle;spacingLeft=4;spacingRight=4;overflow=hidden;points=[[0,0.5],[1,0.5]];portConstraint=eastwest;rotatable=0;whiteSpace=wrap;html=1;" parent="meaRv1d-LlNJj-3QuRXh-37" vertex="1">
          <mxGeometry y="30" width="140" height="130" as="geometry" />
        </mxCell>
        <mxCell id="MgMq9kKjlGCQQoYwDSLB-2" value="Sometimes there are situations where we will need to rethink our implementation.&lt;br&gt;&lt;br&gt;If the ticket needs further discussion on how to implement the changes, move to Game Plan" style="text;strokeColor=#b85450;fillColor=#f8cecc;align=left;verticalAlign=middle;spacingLeft=4;spacingRight=4;overflow=hidden;points=[[0,0.5],[1,0.5]];portConstraint=eastwest;rotatable=0;whiteSpace=wrap;html=1;" parent="meaRv1d-LlNJj-3QuRXh-37" vertex="1">
          <mxGeometry y="160" width="140" height="170" as="geometry" />
        </mxCell>
        <mxCell id="MgMq9kKjlGCQQoYwDSLB-29" value="Manual Testing can be requested to be performaed by a Tester at this point in the process, if the developer feels the need." style="text;strokeColor=#9673a6;fillColor=#e1d5e7;align=left;verticalAlign=middle;spacingLeft=4;spacingRight=4;overflow=hidden;points=[[0,0.5],[1,0.5]];portConstraint=eastwest;rotatable=0;whiteSpace=wrap;html=1;" parent="meaRv1d-LlNJj-3QuRXh-37" vertex="1">
          <mxGeometry y="330" width="140" height="120" as="geometry" />
        </mxCell>
        <mxCell id="meaRv1d-LlNJj-3QuRXh-41" value="PR" style="swimlane;fontStyle=0;childLayout=stackLayout;horizontal=1;startSize=30;horizontalStack=0;resizeParent=1;resizeParentMax=0;resizeLast=0;collapsible=1;marginBottom=0;whiteSpace=wrap;html=1;" parent="WIyWlLk6GJQsqaUBKTNV-1" vertex="1">
          <mxGeometry x="1020" y="590" width="140" height="490" as="geometry">
            <mxRectangle x="940" y="240" width="125.5" height="30" as="alternateBounds" />
          </mxGeometry>
        </mxCell>
        <mxCell id="MgMq9kKjlGCQQoYwDSLB-14" value="&lt;span style=&quot;background-color: initial;&quot;&gt;If there are issues with the PR, for example:&amp;nbsp;&lt;br&gt;&lt;ul&gt;&lt;li&gt;Bugs&lt;/li&gt;&lt;li&gt;Functionality not working as expected&lt;/li&gt;&lt;li&gt;Missing tests&lt;/li&gt;&lt;li&gt;A/C not met&lt;/li&gt;&lt;/ul&gt;&lt;/span&gt;&lt;br&gt;move the ticket back to In Progress" style="text;strokeColor=#d79b00;fillColor=#ffe6cc;align=left;verticalAlign=middle;spacingLeft=4;spacingRight=4;overflow=hidden;points=[[0,0.5],[1,0.5]];portConstraint=eastwest;rotatable=0;whiteSpace=wrap;html=1;" parent="meaRv1d-LlNJj-3QuRXh-41" vertex="1">
          <mxGeometry y="30" width="140" height="190" as="geometry" />
        </mxCell>
        <mxCell id="meaRv1d-LlNJj-3QuRXh-56" value="If comments are left on the ticket, this can be left in PR until they have been actioned. If additional work or refactoring is needed to resolve the comment, then the ticket will need to be moved back to In Progress" style="text;strokeColor=#d6b656;fillColor=#fff2cc;align=left;verticalAlign=middle;spacingLeft=4;spacingRight=4;overflow=hidden;points=[[0,0.5],[1,0.5]];portConstraint=eastwest;rotatable=0;whiteSpace=wrap;html=1;" parent="meaRv1d-LlNJj-3QuRXh-41" vertex="1">
          <mxGeometry y="220" width="140" height="150" as="geometry" />
        </mxCell>
        <mxCell id="MgMq9kKjlGCQQoYwDSLB-30" value="Manual Testing can be requested to be performaed by a Tester at this point in the process, if the developer feels the need." style="text;strokeColor=#9673a6;fillColor=#e1d5e7;align=left;verticalAlign=middle;spacingLeft=4;spacingRight=4;overflow=hidden;points=[[0,0.5],[1,0.5]];portConstraint=eastwest;rotatable=0;whiteSpace=wrap;html=1;" parent="meaRv1d-LlNJj-3QuRXh-41" vertex="1">
          <mxGeometry y="370" width="140" height="120" as="geometry" />
        </mxCell>
        <mxCell id="meaRv1d-LlNJj-3QuRXh-46" value="Ready For Release" style="swimlane;fontStyle=0;childLayout=stackLayout;horizontal=1;startSize=30;horizontalStack=0;resizeParent=1;resizeParentMax=0;resizeLast=0;collapsible=1;marginBottom=0;whiteSpace=wrap;html=1;" parent="WIyWlLk6GJQsqaUBKTNV-1" vertex="1">
          <mxGeometry x="1440" y="590" width="140" height="160" as="geometry">
            <mxRectangle x="1930" y="240" width="140" height="30" as="alternateBounds" />
          </mxGeometry>
        </mxCell>
        <mxCell id="meaRv1d-LlNJj-3QuRXh-47" value="A/C is met" style="text;strokeColor=none;fillColor=none;align=left;verticalAlign=middle;spacingLeft=4;spacingRight=4;overflow=hidden;points=[[0,0.5],[1,0.5]];portConstraint=eastwest;rotatable=0;whiteSpace=wrap;html=1;" parent="meaRv1d-LlNJj-3QuRXh-46" vertex="1">
          <mxGeometry y="30" width="140" height="30" as="geometry" />
        </mxCell>
        <mxCell id="meaRv1d-LlNJj-3QuRXh-48" value="All tests are passing" style="text;strokeColor=none;fillColor=none;align=left;verticalAlign=middle;spacingLeft=4;spacingRight=4;overflow=hidden;points=[[0,0.5],[1,0.5]];portConstraint=eastwest;rotatable=0;whiteSpace=wrap;html=1;" parent="meaRv1d-LlNJj-3QuRXh-46" vertex="1">
          <mxGeometry y="60" width="140" height="40" as="geometry" />
        </mxCell>
        <mxCell id="meaRv1d-LlNJj-3QuRXh-49" value="PR has at least two approvers" style="text;strokeColor=none;fillColor=none;align=left;verticalAlign=middle;spacingLeft=4;spacingRight=4;overflow=hidden;points=[[0,0.5],[1,0.5]];portConstraint=eastwest;rotatable=0;whiteSpace=wrap;html=1;" parent="meaRv1d-LlNJj-3QuRXh-46" vertex="1">
          <mxGeometry y="100" width="140" height="60" as="geometry" />
        </mxCell>
        <mxCell id="meaRv1d-LlNJj-3QuRXh-50" value="Done" style="swimlane;fontStyle=0;childLayout=stackLayout;horizontal=1;startSize=30;horizontalStack=0;resizeParent=1;resizeParentMax=0;resizeLast=0;collapsible=1;marginBottom=0;whiteSpace=wrap;html=1;" parent="WIyWlLk6GJQsqaUBKTNV-1" vertex="1">
          <mxGeometry x="1860" y="590" width="140" height="190" as="geometry">
            <mxRectangle x="2350" y="240" width="130" height="30" as="alternateBounds" />
          </mxGeometry>
        </mxCell>
        <mxCell id="meaRv1d-LlNJj-3QuRXh-51" value="Branch has been merged into Main" style="text;strokeColor=none;fillColor=none;align=left;verticalAlign=middle;spacingLeft=4;spacingRight=4;overflow=hidden;points=[[0,0.5],[1,0.5]];portConstraint=eastwest;rotatable=0;whiteSpace=wrap;html=1;" parent="meaRv1d-LlNJj-3QuRXh-50" vertex="1">
          <mxGeometry y="30" width="140" height="40" as="geometry" />
        </mxCell>
        <mxCell id="meaRv1d-LlNJj-3QuRXh-52" value="PR has been closed" style="text;strokeColor=none;fillColor=none;align=left;verticalAlign=middle;spacingLeft=4;spacingRight=4;overflow=hidden;points=[[0,0.5],[1,0.5]];portConstraint=eastwest;rotatable=0;whiteSpace=wrap;html=1;" parent="meaRv1d-LlNJj-3QuRXh-50" vertex="1">
          <mxGeometry y="70" width="140" height="70" as="geometry" />
        </mxCell>
        <mxCell id="meaRv1d-LlNJj-3QuRXh-53" value="Ticket has met the Definition of Done" style="text;strokeColor=none;fillColor=none;align=left;verticalAlign=middle;spacingLeft=4;spacingRight=4;overflow=hidden;points=[[0,0.5],[1,0.5]];portConstraint=eastwest;rotatable=0;whiteSpace=wrap;html=1;" parent="meaRv1d-LlNJj-3QuRXh-50" vertex="1">
          <mxGeometry y="140" width="140" height="50" as="geometry" />
        </mxCell>
        <mxCell id="meaRv1d-LlNJj-3QuRXh-74" value="&amp;nbsp;Errors/bugs found relating to the A/C&lt;br&gt;&lt;br&gt;OR&lt;br&gt;&lt;br&gt;Comments that require additional work to resolve" style="rounded=1;whiteSpace=wrap;html=1;fillColor=#ffe6cc;strokeColor=#d79b00;" parent="WIyWlLk6GJQsqaUBKTNV-1" vertex="1">
          <mxGeometry x="1035" y="410" width="110" height="120" as="geometry" />
        </mxCell>
        <mxCell id="vbwm1G4BkxUwIjJc9PxB-0" value="Work is too complex and needs a discussion on how to implement it" style="rounded=1;whiteSpace=wrap;html=1;fillColor=#f8cecc;strokeColor=#b85450;" parent="WIyWlLk6GJQsqaUBKTNV-1" vertex="1">
          <mxGeometry x="160" y="780" width="140" height="60" as="geometry" />
        </mxCell>
        <mxCell id="vbwm1G4BkxUwIjJc9PxB-1" value="Ticket to be moved to In Progress when:&lt;br&gt;&lt;br&gt;&lt;ul&gt;&lt;li style=&quot;text-align: left;&quot;&gt;There is a consensus on the approach and breakdown&lt;br&gt;&lt;/li&gt;&lt;/ul&gt;" style="text;strokeColor=#82b366;fillColor=#d5e8d4;align=center;verticalAlign=middle;spacingLeft=4;spacingRight=4;overflow=hidden;points=[[0,0.5],[1,0.5]];portConstraint=eastwest;rotatable=0;whiteSpace=wrap;html=1;" parent="WIyWlLk6GJQsqaUBKTNV-1" vertex="1">
          <mxGeometry x="370" y="590" width="160" height="440" as="geometry" />
        </mxCell>
        <mxCell id="meaRv1d-LlNJj-3QuRXh-55" value="Ticket to be moved into&amp;nbsp; PR once the A/C has been met and A Pull Request has been opened" style="text;strokeColor=#82b366;fillColor=#d5e8d4;align=center;verticalAlign=middle;spacingLeft=4;spacingRight=4;overflow=hidden;points=[[0,0.5],[1,0.5]];portConstraint=eastwest;rotatable=0;whiteSpace=wrap;html=1;" parent="WIyWlLk6GJQsqaUBKTNV-1" vertex="1">
          <mxGeometry x="810" y="590" width="140" height="440" as="geometry" />
        </mxCell>
        <mxCell id="MgMq9kKjlGCQQoYwDSLB-16" value="&lt;div style=&quot;text-align: center;&quot;&gt;&lt;span style=&quot;background-color: initial;&quot;&gt;Ticket to be moved to Ready to Release when:&lt;/span&gt;&lt;/div&gt;&lt;br&gt;&lt;ul&gt;&lt;li&gt;All tests are passing&lt;/li&gt;&lt;/ul&gt;&lt;div&gt;&lt;br&gt;&lt;/div&gt;&lt;ul&gt;&lt;li&gt;Comments on PR have been addressed&lt;/li&gt;&lt;/ul&gt;&lt;div&gt;&lt;br&gt;&lt;/div&gt;&lt;ul&gt;&lt;li&gt;PR has at least two approvers&lt;/li&gt;&lt;/ul&gt;&lt;div&gt;&lt;br&gt;&lt;/div&gt;&lt;ul&gt;&lt;li&gt;A/C has been met&lt;/li&gt;&lt;/ul&gt;" style="text;strokeColor=#82b366;fillColor=#d5e8d4;align=left;verticalAlign=middle;spacingLeft=4;spacingRight=4;overflow=hidden;points=[[0,0.5],[1,0.5]];portConstraint=eastwest;rotatable=0;whiteSpace=wrap;html=1;" parent="WIyWlLk6GJQsqaUBKTNV-1" vertex="1">
          <mxGeometry x="1230" y="590" width="140" height="440" as="geometry" />
        </mxCell>
        <mxCell id="vbwm1G4BkxUwIjJc9PxB-2" value="&lt;div style=&quot;text-align: center;&quot;&gt;&lt;span style=&quot;background-color: initial;&quot;&gt;Ticket to be moved to Done when:&lt;/span&gt;&lt;/div&gt;&lt;br&gt;&lt;ul&gt;&lt;li&gt;Branch has been merged into Main&lt;/li&gt;&lt;/ul&gt;&lt;br&gt;&lt;ul&gt;&lt;li&gt;Ticket has met the Definition of Done&lt;/li&gt;&lt;/ul&gt;&lt;div&gt;&lt;br&gt;&lt;/div&gt;&lt;div&gt;&lt;ul&gt;&lt;li&gt;PR has been closed&lt;/li&gt;&lt;/ul&gt;&lt;/div&gt;" style="text;strokeColor=#82b366;fillColor=#d5e8d4;align=left;verticalAlign=middle;spacingLeft=4;spacingRight=4;overflow=hidden;points=[[0,0.5],[1,0.5]];portConstraint=eastwest;rotatable=0;whiteSpace=wrap;html=1;" parent="WIyWlLk6GJQsqaUBKTNV-1" vertex="1">
          <mxGeometry x="1650" y="590" width="140" height="440" as="geometry" />
        </mxCell>
        <mxCell id="vbwm1G4BkxUwIjJc9PxB-24" value="" style="edgeStyle=orthogonalEdgeStyle;rounded=0;orthogonalLoop=1;jettySize=auto;html=1;" parent="WIyWlLk6GJQsqaUBKTNV-1" source="vbwm1G4BkxUwIjJc9PxB-6" edge="1">
          <mxGeometry relative="1" as="geometry">
            <mxPoint x="230" y="1130" as="targetPoint" />
          </mxGeometry>
        </mxCell>
        <mxCell id="vbwm1G4BkxUwIjJc9PxB-6" value="Work is too complex and needs a discussion on how to implement it" style="rounded=1;whiteSpace=wrap;html=1;fillColor=#f8cecc;strokeColor=#b85450;" parent="WIyWlLk6GJQsqaUBKTNV-1" vertex="1">
          <mxGeometry x="600" y="1100" width="140" height="60" as="geometry" />
        </mxCell>
        <mxCell id="vbwm1G4BkxUwIjJc9PxB-10" style="edgeStyle=orthogonalEdgeStyle;rounded=0;orthogonalLoop=1;jettySize=auto;html=1;exitX=1;exitY=0.5;exitDx=0;exitDy=0;entryX=0.004;entryY=0.386;entryDx=0;entryDy=0;entryPerimeter=0;" parent="WIyWlLk6GJQsqaUBKTNV-1" target="meaRv1d-LlNJj-3QuRXh-38" edge="1">
          <mxGeometry relative="1" as="geometry">
            <mxPoint x="530" y="669.8199999999999" as="sourcePoint" />
            <mxPoint x="596" y="669.8199999999999" as="targetPoint" />
          </mxGeometry>
        </mxCell>
        <mxCell id="vbwm1G4BkxUwIjJc9PxB-11" style="edgeStyle=orthogonalEdgeStyle;rounded=0;orthogonalLoop=1;jettySize=auto;html=1;exitX=1;exitY=0.5;exitDx=0;exitDy=0;entryX=-0.024;entryY=0.17;entryDx=0;entryDy=0;entryPerimeter=0;" parent="WIyWlLk6GJQsqaUBKTNV-1" edge="1">
          <mxGeometry relative="1" as="geometry">
            <mxPoint x="300" y="669.8199999999999" as="sourcePoint" />
            <mxPoint x="366" y="669.8199999999999" as="targetPoint" />
          </mxGeometry>
        </mxCell>
        <mxCell id="vbwm1G4BkxUwIjJc9PxB-12" style="edgeStyle=orthogonalEdgeStyle;rounded=0;orthogonalLoop=1;jettySize=auto;html=1;exitX=1;exitY=0.5;exitDx=0;exitDy=0;entryX=-0.009;entryY=0.183;entryDx=0;entryDy=0;entryPerimeter=0;" parent="WIyWlLk6GJQsqaUBKTNV-1" target="meaRv1d-LlNJj-3QuRXh-55" edge="1">
          <mxGeometry relative="1" as="geometry">
            <mxPoint x="740" y="669.8199999999999" as="sourcePoint" />
            <mxPoint x="806" y="669.8199999999999" as="targetPoint" />
          </mxGeometry>
        </mxCell>
        <mxCell id="vbwm1G4BkxUwIjJc9PxB-13" style="edgeStyle=orthogonalEdgeStyle;rounded=0;orthogonalLoop=1;jettySize=auto;html=1;exitX=1;exitY=0.5;exitDx=0;exitDy=0;entryX=-0.004;entryY=0.262;entryDx=0;entryDy=0;entryPerimeter=0;" parent="WIyWlLk6GJQsqaUBKTNV-1" target="MgMq9kKjlGCQQoYwDSLB-14" edge="1">
          <mxGeometry relative="1" as="geometry">
            <mxPoint x="950" y="669.8199999999999" as="sourcePoint" />
            <mxPoint x="1016" y="669.8199999999999" as="targetPoint" />
            <Array as="points">
              <mxPoint x="970" y="670" />
              <mxPoint x="970" y="670" />
            </Array>
          </mxGeometry>
        </mxCell>
        <mxCell id="vbwm1G4BkxUwIjJc9PxB-14" style="edgeStyle=orthogonalEdgeStyle;rounded=0;orthogonalLoop=1;jettySize=auto;html=1;exitX=1;exitY=0.5;exitDx=0;exitDy=0;entryX=-0.004;entryY=0.181;entryDx=0;entryDy=0;entryPerimeter=0;" parent="WIyWlLk6GJQsqaUBKTNV-1" target="MgMq9kKjlGCQQoYwDSLB-16" edge="1">
          <mxGeometry relative="1" as="geometry">
            <mxPoint x="1160" y="669.8199999999999" as="sourcePoint" />
            <mxPoint x="1226" y="669.8199999999999" as="targetPoint" />
            <Array as="points">
              <mxPoint x="1200" y="670" />
            </Array>
          </mxGeometry>
        </mxCell>
        <mxCell id="vbwm1G4BkxUwIjJc9PxB-15" style="edgeStyle=orthogonalEdgeStyle;rounded=0;orthogonalLoop=1;jettySize=auto;html=1;exitX=1;exitY=0.5;exitDx=0;exitDy=0;entryX=-0.016;entryY=0.495;entryDx=0;entryDy=0;entryPerimeter=0;" parent="WIyWlLk6GJQsqaUBKTNV-1" target="meaRv1d-LlNJj-3QuRXh-48" edge="1">
          <mxGeometry relative="1" as="geometry">
            <mxPoint x="1370" y="669.8199999999999" as="sourcePoint" />
            <mxPoint x="1436" y="669.8199999999999" as="targetPoint" />
            <Array as="points">
              <mxPoint x="1410" y="670" />
              <mxPoint x="1410" y="670" />
            </Array>
          </mxGeometry>
        </mxCell>
        <mxCell id="vbwm1G4BkxUwIjJc9PxB-16" style="edgeStyle=orthogonalEdgeStyle;rounded=0;orthogonalLoop=1;jettySize=auto;html=1;exitX=1;exitY=0.5;exitDx=0;exitDy=0;entryX=-0.024;entryY=0.17;entryDx=0;entryDy=0;entryPerimeter=0;" parent="WIyWlLk6GJQsqaUBKTNV-1" edge="1">
          <mxGeometry relative="1" as="geometry">
            <mxPoint x="1580" y="669.8199999999999" as="sourcePoint" />
            <mxPoint x="1646" y="669.8199999999999" as="targetPoint" />
          </mxGeometry>
        </mxCell>
        <mxCell id="vbwm1G4BkxUwIjJc9PxB-17" style="edgeStyle=orthogonalEdgeStyle;rounded=0;orthogonalLoop=1;jettySize=auto;html=1;exitX=1;exitY=0.5;exitDx=0;exitDy=0;entryX=-0.024;entryY=0.17;entryDx=0;entryDy=0;entryPerimeter=0;" parent="WIyWlLk6GJQsqaUBKTNV-1" edge="1">
          <mxGeometry relative="1" as="geometry">
            <mxPoint x="1790" y="669.8199999999999" as="sourcePoint" />
            <mxPoint x="1856" y="669.8199999999999" as="targetPoint" />
          </mxGeometry>
        </mxCell>
        <mxCell id="vbwm1G4BkxUwIjJc9PxB-18" value="" style="endArrow=classic;html=1;rounded=0;entryX=0.5;entryY=0;entryDx=0;entryDy=0;exitX=0.5;exitY=1;exitDx=0;exitDy=0;exitPerimeter=0;" parent="WIyWlLk6GJQsqaUBKTNV-1" source="meaRv1d-LlNJj-3QuRXh-29" target="vbwm1G4BkxUwIjJc9PxB-0" edge="1">
          <mxGeometry width="50" height="50" relative="1" as="geometry">
            <mxPoint x="290" y="750" as="sourcePoint" />
            <mxPoint x="340" y="700" as="targetPoint" />
            <Array as="points">
              <mxPoint x="230" y="740" />
            </Array>
          </mxGeometry>
        </mxCell>
        <mxCell id="vbwm1G4BkxUwIjJc9PxB-20" value="" style="endArrow=classic;html=1;rounded=0;entryX=0.5;entryY=0;entryDx=0;entryDy=0;exitX=0.5;exitY=1;exitDx=0;exitDy=0;exitPerimeter=0;" parent="WIyWlLk6GJQsqaUBKTNV-1" target="meaRv1d-LlNJj-3QuRXh-33" edge="1">
          <mxGeometry width="50" height="50" relative="1" as="geometry">
            <mxPoint x="229.89999999999998" y="840" as="sourcePoint" />
            <mxPoint x="229.89999999999998" y="910" as="targetPoint" />
            <Array as="points">
              <mxPoint x="229.89999999999998" y="870" />
            </Array>
          </mxGeometry>
        </mxCell>
        <mxCell id="vbwm1G4BkxUwIjJc9PxB-21" value="" style="endArrow=classic;html=1;rounded=0;entryX=-0.009;entryY=0.894;entryDx=0;entryDy=0;exitX=1.001;exitY=0.411;exitDx=0;exitDy=0;exitPerimeter=0;entryPerimeter=0;" parent="WIyWlLk6GJQsqaUBKTNV-1" source="meaRv1d-LlNJj-3QuRXh-34" target="vbwm1G4BkxUwIjJc9PxB-1" edge="1">
          <mxGeometry width="50" height="50" relative="1" as="geometry">
            <mxPoint x="320" y="940" as="sourcePoint" />
            <mxPoint x="320" y="1010" as="targetPoint" />
            <Array as="points" />
          </mxGeometry>
        </mxCell>
        <mxCell id="vbwm1G4BkxUwIjJc9PxB-22" value="" style="endArrow=classic;html=1;rounded=0;entryX=0.5;entryY=0;entryDx=0;entryDy=0;" parent="WIyWlLk6GJQsqaUBKTNV-1" target="vbwm1G4BkxUwIjJc9PxB-6" edge="1">
          <mxGeometry width="50" height="50" relative="1" as="geometry">
            <mxPoint x="669.8" y="1040" as="sourcePoint" />
            <mxPoint x="669.8" y="1090" as="targetPoint" />
            <Array as="points" />
          </mxGeometry>
        </mxCell>
        <mxCell id="vbwm1G4BkxUwIjJc9PxB-25" value="" style="edgeStyle=orthogonalEdgeStyle;rounded=0;orthogonalLoop=1;jettySize=auto;html=1;" parent="WIyWlLk6GJQsqaUBKTNV-1" target="meaRv1d-LlNJj-3QuRXh-34" edge="1">
          <mxGeometry relative="1" as="geometry">
            <mxPoint x="230" y="1130" as="sourcePoint" />
            <Array as="points">
              <mxPoint x="230" y="1060" />
              <mxPoint x="230" y="1060" />
            </Array>
          </mxGeometry>
        </mxCell>
        <mxCell id="vbwm1G4BkxUwIjJc9PxB-27" style="edgeStyle=orthogonalEdgeStyle;rounded=0;orthogonalLoop=1;jettySize=auto;html=1;exitX=0.5;exitY=0;exitDx=0;exitDy=0;entryX=0.496;entryY=1.026;entryDx=0;entryDy=0;entryPerimeter=0;" parent="WIyWlLk6GJQsqaUBKTNV-1" source="meaRv1d-LlNJj-3QuRXh-41" target="meaRv1d-LlNJj-3QuRXh-74" edge="1">
          <mxGeometry relative="1" as="geometry">
            <mxPoint x="1080" y="580.03" as="sourcePoint" />
            <mxPoint x="1149" y="580.21" as="targetPoint" />
            <Array as="points">
              <mxPoint x="1090" y="580" />
              <mxPoint x="1090" y="580" />
            </Array>
          </mxGeometry>
        </mxCell>
        <mxCell id="vbwm1G4BkxUwIjJc9PxB-28" style="edgeStyle=orthogonalEdgeStyle;rounded=0;orthogonalLoop=1;jettySize=auto;html=1;exitX=0;exitY=0.5;exitDx=0;exitDy=0;entryX=0.497;entryY=-0.004;entryDx=0;entryDy=0;entryPerimeter=0;" parent="WIyWlLk6GJQsqaUBKTNV-1" source="meaRv1d-LlNJj-3QuRXh-74" edge="1">
          <mxGeometry relative="1" as="geometry">
            <mxPoint x="825.4200000000001" y="471.76" as="sourcePoint" />
            <mxPoint x="670.0000000000005" y="590.0000000000001" as="targetPoint" />
            <Array as="points">
              <mxPoint x="1035" y="472" />
              <mxPoint x="670" y="472" />
            </Array>
          </mxGeometry>
        </mxCell>
      </root>
    </mxGraphModel>
  </diagram>
</mxfile>
